<svg width="256" height="256" viewBox="0 0 256 256" fill="none" xmlns="http://www.w3.org/2000/svg" role="img" aria-labelledby="title desc">
  <title id="title">Capital Engine score mark</title>
  <desc id="desc">A geometric score mark for Capital Engine.</desc>
  <rect width="256" height="256" rx="56" fill="#39D48F"/>
  <path d="M69 142C69 101.683 101.683 69 142 69H190V112H142C125.431 112 112 125.431 112 142C112 158.569 125.431 172 142 172H190V215H142C101.683 215 69 182.317 69 142Z" fill="#0D0F14"/>
  <path d="M66 63H118V106H66V63Z" fill="#0D0F14"/>
  <path d="M142 121H193V164H142V121Z" fill="#0D0F14"/>
  <path d="M204 55L214 82L241 92L214 102L204 129L194 102L167 92L194 82L204 55Z" fill="#0D0F14"/>
</svg>
