<svg version="1.1" xmlns="http://www.w3.org/2000/svg" style="display: block;" viewBox="0 0 2048 2048" width="1024" height="1024" preserveAspectRatio="none"><title>Capital Engine Recraft vector monochrome logo</title>
<path transform="translate(0,0)" fill="none" d="M 0 0 L 2048 0 L 2048 2048 L 0 2048 L 0 0 z"/>
<path transform="translate(0,0)" fill="currentColor" d="M 477.326 1403.12 C 421.265 1338.79 379.835 1271.78 356.065 1189.16 C 313.345 1042.16 330.813 884.214 404.618 750.105 C 479.449 614.773 594.694 517.859 743.885 473.734 C 865.594 437.738 1002.53 450.29 1114.04 512.094 C 1144.92 528.15 1200.12 569.365 1225.18 593.782 C 1258.82 625.939 1288.52 654.011 1315.86 692.023 C 1305.01 700.782 1291.74 709.739 1280.07 717.532 C 1247.36 739.373 1217.09 765.101 1185.25 787.926 C 1181.72 790.75 1168.06 802.024 1164.82 803.946 C 1135.05 825.339 1105.87 847.541 1077.32 870.528 C 1056.88 886.758 1036.11 903.17 1017.27 921.246 C 984.737 881.892 940.778 852.383 889.023 847.417 C 845.147 843.563 801.515 857.113 767.54 885.142 C 731.824 914.721 709.443 957.373 705.399 1003.57 C 700.788 1049.73 715.343 1095.76 745.654 1130.89 C 774.886 1165.37 816.673 1186.76 861.741 1190.31 C 904.198 1193.11 946.031 1178.95 978.056 1150.93 C 1016.42 1117.23 1027.2 1074.79 1061.13 1033.57 C 1128.74 952.501 1224.11 899.512 1328.66 884.936 C 1382.38 877.532 1436.56 880.496 1490.64 880.177 C 1498.13 880.133 1505.75 880.168 1513.23 880.357 C 1514.47 919.166 1513.54 958.653 1513.91 997.571 C 1514.02 1040.97 1514.78 1085.81 1514.36 1129.05 L 1431.46 1128.92 C 1414.93 1128.9 1393.17 1128.13 1377.15 1129.4 C 1305.39 1135.08 1245.47 1154.87 1193.96 1207.71 C 1183.8 1218.13 1150.77 1255.59 1142.23 1261.75 C 1128.05 1276.04 1111.44 1288.24 1095.77 1300.72 C 1029.18 1353.76 955.122 1383.87 868.792 1384.12 C 866.487 1384.13 864.182 1384.12 861.877 1384.09 C 857.091 1383.39 850.55 1383.35 845.621 1383.15 C 806.359 1381.58 769.133 1370.56 733.956 1352.69 C 660.586 1315.52 604.422 1251.43 577.2 1173.81 C 573.023 1161.91 569.543 1149.78 566.776 1137.48 C 565.636 1132.36 563.238 1118.85 561.788 1114.61 L 561.326 1113.3 C 560.177 1104.46 558.869 1095.88 557.917 1086.98 C 537.9 899.852 652.286 685.216 851.434 658.19 C 872.672 655.308 890.852 656.557 911.883 655.472 C 884.344 649.745 856.16 647.745 828.088 649.525 C 724.225 656.637 636.441 706.634 568.677 784.173 C 508.604 854.295 472.353 941.684 465.151 1033.74 C 461.672 1073.71 462.928 1114.25 462.808 1154.22 C 462.602 1222.45 461.199 1289.95 471.648 1357.63 C 473.869 1372.02 476.336 1388.65 477.326 1403.12 z"/>
<path transform="translate(0,0)" fill="currentColor" d="M 1114.04 512.094 C 1144.92 528.15 1200.12 569.365 1225.18 593.782 C 1258.82 625.939 1288.52 654.011 1315.86 692.023 C 1305.01 700.782 1291.74 709.739 1280.07 717.532 C 1247.36 739.373 1217.09 765.101 1185.25 787.926 C 1181.72 790.75 1168.06 802.024 1164.82 803.946 C 1133.62 755.422 1065.14 705.225 1011.94 682.892 C 988.453 673.031 968.885 666.979 944.383 659.798 C 990.849 600.054 1048.46 549.893 1114.04 512.094 z"/>
<path transform="translate(0,0)" fill="currentColor" d="M 1225.18 593.782 C 1258.82 625.939 1288.52 654.011 1315.86 692.023 C 1305.01 700.782 1291.74 709.739 1280.07 717.532 C 1247.36 739.373 1217.09 765.101 1185.25 787.926 C 1143.6 742.625 1127.4 674.651 1174.37 628.818 C 1191.09 612.504 1205.88 605.815 1225.18 593.782 z"/>
<path transform="translate(0,0)" fill="currentColor" d="M 1142.23 1261.75 C 1165.47 1204.5 1184.33 1151.53 1226.25 1105.03 C 1282.46 1042.69 1356.86 1007.31 1440.11 1000.2 C 1464.67 998.109 1489.2 998.883 1513.91 997.571 C 1514.02 1040.97 1514.78 1085.81 1514.36 1129.05 L 1431.46 1128.92 C 1414.93 1128.9 1393.17 1128.13 1377.15 1129.4 C 1305.39 1135.08 1245.47 1154.87 1193.96 1207.71 C 1183.8 1218.13 1150.77 1255.59 1142.23 1261.75 z"/>
<path transform="translate(0,0)" fill="currentColor" d="M 549.015 1046.15 C 550.49 1049 550.513 1051.54 551.524 1053.38 C 553.644 1067.21 555.449 1102.1 561.326 1113.3 L 561.788 1114.61 C 563.238 1118.85 565.636 1132.36 566.776 1137.48 C 569.543 1149.78 573.023 1161.91 577.2 1173.81 C 604.422 1251.43 660.586 1315.52 733.956 1352.69 C 769.133 1370.56 806.359 1381.58 845.621 1383.15 C 850.55 1383.35 857.091 1383.39 861.877 1384.09 C 867.094 1386.89 880.965 1386.86 887.122 1387.12 C 994.646 1391.56 1082.34 1350.46 1158.92 1275.46 C 1173.08 1289.1 1205.26 1319.99 1223.63 1328.19 C 1262.27 1291.42 1294.42 1252.91 1317.81 1204.54 C 1323.12 1193.57 1327.54 1183.26 1331.95 1171.9 C 1332.9 1169.47 1337.69 1156.92 1338.71 1155.32 C 1325.57 1219.7 1284.94 1290.8 1243.52 1340.95 C 1257.4 1349.29 1289.31 1356.26 1305.38 1359.64 C 1283.31 1388.44 1261.59 1415.84 1235.49 1441.27 C 1131.35 1541.32 1008.95 1594.49 864.876 1594.92 C 680.429 1595.46 560.392 1480.29 549.665 1297.74 C 548.923 1283.16 548.76 1268.42 548.881 1253.82 C 549.455 1184.63 547.946 1115.32 549.015 1046.15 z"/>
<path transform="translate(0,0)" fill="currentColor" d="M 1223.63 1328.19 C 1262.27 1291.42 1294.42 1252.91 1317.81 1204.54 C 1323.12 1193.57 1327.54 1183.26 1331.95 1171.9 C 1332.9 1169.47 1337.69 1156.92 1338.71 1155.32 C 1325.57 1219.7 1284.94 1290.8 1243.52 1340.95 C 1240.23 1343.9 1235.86 1348.74 1232.9 1352.02 C 1132.61 1463.2 970.499 1485.9 832.595 1441.71 C 815.805 1436.33 794.622 1430.13 779.275 1421.1 C 821.8 1433.51 858.535 1441.15 903.149 1443.01 C 1020.92 1448.41 1136.08 1407.15 1223.63 1328.19 z"/>
<path transform="translate(0,0)" fill="currentColor" d="M 1140.56 499.166 C 1254.81 442.88 1339.34 453.066 1462.32 453.003 L 1691.72 452.99 C 1691.41 506.117 1691.46 559.246 1691.87 612.372 C 1691.89 629.368 1692.88 670.18 1691.22 684.986 L 1333.92 684.983 C 1306.84 644.191 1274.63 607.054 1238.07 574.488 C 1210.6 551.758 1185.07 528.375 1154.63 509.403 C 1150.06 506.56 1144.6 502.631 1140.56 499.166 z"/>
<path transform="translate(0,0)" fill="currentColor" d="M 1238.07 574.488 C 1254.87 573.278 1277.83 573.808 1295.01 573.702 C 1333.5 573.398 1371.99 573.362 1410.48 573.592 C 1503.36 573.629 1598.48 572.496 1691.26 573.891 C 1691.22 608.937 1690.06 650.445 1691.22 684.986 L 1333.92 684.983 C 1306.84 644.191 1274.63 607.054 1238.07 574.488 z"/>
<path transform="translate(0,0)" fill="currentColor" d="M 1544.09 1248.05 C 1561.25 1257.21 1583.58 1271.99 1600.67 1282.37 C 1639.74 1306.6 1679.36 1329.94 1719.49 1352.36 C 1621.81 1503.79 1466.68 1596.13 1284.81 1594.91 C 1218.12 1591.76 1172.49 1581.39 1110.05 1557.09 C 1129.71 1545.12 1150.9 1535.97 1171.42 1522.03 C 1231.98 1480.88 1288.34 1424.18 1329.33 1363.8 C 1431.6 1371.04 1484.83 1322.09 1544.09 1248.05 z"/>
<path transform="translate(0,0)" fill="currentColor" d="M 549.376 1017.94 C 550.591 1023.7 552.837 1048.43 551.524 1053.38 C 550.513 1051.54 550.49 1049 549.015 1046.15 C 548.305 1038.96 549.072 1025.57 549.376 1017.94 z"/>
</svg>